<svg width="31" height="23" viewBox="0 0 31 23" fill="none" xmlns="http://www.w3.org/2000/svg">
<path d="M2.2348 0.00756889C1.74015 0.0867124 1.2972 0.359112 1.0034 0.764844C0.709591 1.17057 0.588996 1.6764 0.668139 2.17105C0.747283 2.6657 1.01968 3.10864 1.42541 3.40245C1.83115 3.69626 2.33697 3.81685 2.83162 3.73771H8.42683L8.76254 4.67024L10.2919 9.33292L11.8213 13.9956C11.9705 14.4805 12.6046 14.9281 13.0895 14.9281H26.145C26.6672 14.9281 27.264 14.4805 27.4132 13.9956L30.4347 4.67024C30.5839 4.18532 30.36 3.73771 29.8378 3.73771H13.276L11.8586 1.05201C11.7076 0.743746 11.4745 0.483126 11.1849 0.298846C10.8953 0.114566 10.5605 0.013774 10.2173 0.00756889L2.75702 0.00756889C2.64534 -0.00252296 2.53298 -0.00252296 2.4213 0.00756889C2.34677 0.00308869 2.27203 0.00308869 2.1975 0.00756889L2.2348 0.00756889ZM14.022 18.6583C12.9776 18.6583 12.157 19.4789 12.157 20.5233C12.157 21.5678 12.9776 22.3884 14.022 22.3884C15.0665 22.3884 15.8871 21.5678 15.8871 20.5233C15.8871 19.4789 15.0665 18.6583 14.022 18.6583ZM25.2125 18.6583C24.168 18.6583 23.3474 19.4789 23.3474 20.5233C23.3474 21.5678 24.168 22.3884 25.2125 22.3884C26.2569 22.3884 27.0775 21.5678 27.0775 20.5233C27.0775 19.4789 26.2569 18.6583 25.2125 18.6583Z" fill="#585858"/>
</svg>
