<svg width="25" height="25" viewBox="0 0 25 25" fill="none" xmlns="http://www.w3.org/2000/svg">
<path d="M10.6264 0.0303613C4.76672 0.0303613 0 4.79708 0 10.6568C0 16.5165 4.76672 21.2832 10.6264 21.2832C12.4178 21.2832 14.1787 20.8582 15.6664 20.0384C15.7856 20.1818 15.9177 20.314 16.0611 20.4331L19.0972 23.4693C19.3776 23.7847 19.7194 24.0395 20.1018 24.2181C20.4842 24.3966 20.8991 24.4951 21.3209 24.5076C21.7428 24.52 22.1627 24.446 22.5549 24.2903C22.9472 24.1346 23.3034 23.9003 23.6019 23.6019C23.9003 23.3034 24.1346 22.9472 24.2903 22.5549C24.446 22.1627 24.52 21.7428 24.5076 21.3209C24.4951 20.8991 24.3966 20.4842 24.2181 20.1018C24.0395 19.7194 23.7847 19.3776 23.4693 19.0972L20.4331 16.0611C20.2852 15.9132 20.1224 15.7809 19.9473 15.6664C20.7671 14.1787 21.2832 12.4481 21.2832 10.6264C21.2832 4.76672 16.5165 0 10.6568 0L10.6264 0.0303613ZM10.6264 3.06649C14.8467 3.06649 18.2168 6.43659 18.2168 10.6568C18.2168 12.6606 17.4881 14.5127 16.2129 15.8789C16.1826 15.9093 16.1522 15.9397 16.1218 15.97C15.9784 16.0892 15.8463 16.2213 15.7271 16.3647C14.3912 17.5792 12.5696 18.2775 10.5961 18.2775C6.37586 18.2775 3.00576 14.9074 3.00576 10.6872C3.00576 6.46695 6.37586 3.09685 10.5961 3.09685L10.6264 3.06649Z" fill="white"/>
</svg>
