<svg width="31" height="32" viewBox="0 0 31 32" fill="none" xmlns="http://www.w3.org/2000/svg">
<path d="M26.3757 13.6291L16.417 3.4508C16.2969 3.32973 16.1541 3.23364 15.9966 3.16806C15.8392 3.10249 15.6704 3.06873 15.4999 3.06873C15.3294 3.06873 15.1606 3.10249 15.0032 3.16806C14.8458 3.23364 14.7029 3.32973 14.5828 3.4508L4.62407 13.642C4.38309 13.885 4.19278 14.1733 4.06417 14.4904C3.93556 14.8075 3.87123 15.147 3.8749 15.4891V26.3133C3.8739 26.9745 4.12649 27.611 4.58064 28.0915C5.03479 28.5721 5.65593 28.8603 6.31615 28.8966H24.6837C25.3439 28.8603 25.965 28.5721 26.4192 28.0915C26.8733 27.611 27.1259 26.9745 27.1249 26.3133V15.4891C27.1259 14.7954 26.8573 14.1285 26.3757 13.6291ZM12.9166 26.3133V18.5633H18.0832V26.3133H12.9166ZM24.5416 26.3133H20.6666V17.2716C20.6666 16.9291 20.5305 16.6005 20.2883 16.3583C20.046 16.1161 19.7175 15.98 19.3749 15.98H11.6249C11.2823 15.98 10.9538 16.1161 10.7116 16.3583C10.4693 16.6005 10.3332 16.9291 10.3332 17.2716V26.3133H6.45824V15.4375L15.4999 6.20205L24.5416 15.4891V26.3133Z" fill="white"/>
</svg>
