<svg width="184" height="114" viewBox="0 0 184 114" fill="none" xmlns="http://www.w3.org/2000/svg">
<path d="M153.346 58.6067H33.0329C32.4199 58.6067 31.9221 59.1031 31.9221 59.7145V61.375C31.9221 61.9864 32.4199 62.4828 33.0329 62.4828H49.7945V68.6969H43.8705C43.2575 68.6969 42.7598 69.1933 42.7598 69.8047C42.7598 70.4161 43.2575 70.9125 43.8705 70.9125H49.7945H52.0135H86.4782L54.1957 99.1998C53.6024 99.9897 54.2055 101.112 55.1937 101.056C55.5075 101.039 55.8018 100.894 56.0077 100.657L90.6147 70.9125H92.081H94.3H95.7442L129.998 100.608C130.229 100.877 130.562 101.039 130.915 101.056C132.014 101.112 132.681 99.8649 132.021 98.987L99.4246 70.9125H142.51C143.123 70.9125 143.621 70.4161 143.621 69.8047C143.621 69.1933 143.123 68.6969 142.51 68.6969H136.587V62.4828H153.348C153.961 62.4828 154.459 61.9864 154.459 61.375V59.7145C154.456 59.1031 153.959 58.6067 153.346 58.6067ZM52.0135 68.6969V62.4828H92.0785V68.6969H89.0062H52.0135ZM134.365 68.6969H96.8525H94.3V62.4828H134.365V68.6969Z" fill="#AEC3B0"/>
<path d="M43.1374 15.6782V18.5859H37.4807V21.9974H42.8284V24.817H37.4807V32.1634H34.1926V15.6782H43.1374Z" fill="#AEC3B0"/>
<path d="M45.9646 15.6782H49.2968V25.7366C49.2968 27.062 49.5862 28.0133 50.1624 28.5905C50.7386 29.1652 51.5036 29.4537 52.4525 29.4537C53.4014 29.4537 54.1664 29.1627 54.7426 28.5782C55.3188 27.9962 55.6082 27.0253 55.6082 25.6705V15.6782H58.9183V26.0863C58.9183 27.1354 58.7491 28.0573 58.4132 28.8521C58.0773 29.6469 57.6212 30.3097 57.0426 30.8428C56.4639 31.3759 55.7823 31.7794 54.9927 32.0558C54.2032 32.3321 53.3548 32.4715 52.45 32.4715C51.5428 32.4715 50.6969 32.3321 49.9074 32.0558C49.1178 31.7794 48.4313 31.3735 47.8477 30.8428C47.2641 30.3097 46.8032 29.6469 46.4673 28.8521C46.1313 28.0573 45.9622 27.1354 45.9622 26.0863V15.6782H45.9646Z" fill="#AEC3B0"/>
<path d="M66.2864 15.6782C67.2353 15.6782 68.1057 15.7735 68.8953 15.9618C69.6848 16.1501 70.364 16.4509 70.9328 16.8593C71.5041 17.2677 71.948 17.7911 72.2692 18.4343C72.5904 19.075 72.7522 19.8404 72.7522 20.7306C72.7522 21.7797 72.4678 22.7017 71.8965 23.4965C71.3252 24.2913 70.4645 24.9295 69.3096 25.4089L74.1768 32.1658H70.2316L66.0878 25.7586H65.6047V32.1658H62.3167V15.6782H66.2864ZM65.6072 23.1785H66.3305C67.3383 23.1785 68.1204 22.9902 68.677 22.6112C69.2312 22.2321 69.5107 21.6281 69.5107 20.7966C69.5107 20.0092 69.2483 19.4345 68.7212 19.0701C68.194 18.7057 67.429 18.5247 66.4188 18.5247H65.6072V23.1785Z" fill="#AEC3B0"/>
<path d="M76.0403 32.1634V15.6782H78.2765L87.9004 26.6976L87.8121 15.6782H91.0561V32.1634H88.842L79.218 21.1659L79.2842 32.1634H76.0403Z" fill="#AEC3B0"/>
<path d="M94.6089 32.1634V15.6782H97.897V32.1634H94.6089Z" fill="#AEC3B0"/>
<path d="M100.023 15.6782H110.721V18.7179H107.038V32.1634H103.728V18.7179H100.023V15.6782Z" fill="#AEC3B0"/>
<path d="M112.692 15.6782H116.024V25.7366C116.024 27.062 116.314 28.0133 116.89 28.5905C117.466 29.1652 118.231 29.4537 119.18 29.4537C120.129 29.4537 120.894 29.1627 121.47 28.5782C122.046 27.9962 122.336 27.0253 122.336 25.6705V15.6782H125.646V26.0863C125.646 27.1354 125.477 28.0573 125.141 28.8521C124.805 29.6469 124.349 30.3097 123.77 30.8428C123.191 31.3759 122.51 31.7794 121.72 32.0558C120.931 32.3321 120.082 32.4715 119.178 32.4715C118.27 32.4715 117.424 32.3321 116.635 32.0558C115.845 31.7794 115.159 31.3735 114.575 30.8428C113.992 30.3097 113.531 29.6469 113.195 28.8521C112.859 28.0573 112.69 27.1354 112.69 26.0863V15.6782H112.692Z" fill="#AEC3B0"/>
<path d="M133.014 15.6782C133.963 15.6782 134.833 15.7735 135.623 15.9618C136.412 16.1501 137.092 16.4509 137.66 16.8593C138.232 17.2677 138.675 17.7911 138.997 18.4343C139.318 19.075 139.48 19.8404 139.48 20.7306C139.48 21.7797 139.195 22.7017 138.624 23.4965C138.053 24.2913 137.192 24.9295 136.037 25.4089L140.904 32.1658H136.959L132.815 25.7586H132.332V32.1658H129.047V15.6782H133.014ZM132.335 23.1785H133.058C134.066 23.1785 134.848 22.9902 135.405 22.6112C135.959 22.2321 136.238 21.6281 136.238 20.7966C136.238 20.0092 135.976 19.4345 135.449 19.0701C134.922 18.7057 134.157 18.5247 133.146 18.5247H132.335V23.1785Z" fill="#AEC3B0"/>
<path d="M152.348 15.6782V18.5198H146.034V21.9093H152.105V24.707H146.034V29.3192H152.392V32.1609H142.746V15.6782H152.348Z" fill="#AEC3B0"/>
<path d="M35.2471 54.014L33.8004 53.0969L42.2621 38.798H33.4277V37.0935H45.2217V37.1375L35.2471 54.014Z" fill="#AEC3B0"/>
<path d="M42.853 50.2748V50.2088L52.9796 36.1716H53.0458V48.6339H55.0197V50.2748H53.0458V53.5763H51.3147V50.2748H42.853ZM45.8787 48.6363H51.3147V42.8429C51.3147 42.5519 51.3172 42.2536 51.3246 41.9454C51.3319 41.6397 51.3417 41.3414 51.3564 41.0479L45.8787 48.6363Z" fill="#AEC3B0"/>
<path d="M62.736 46.9098C63.3073 46.2544 63.7879 45.6773 64.1827 45.1833C64.5775 44.6868 64.8962 44.232 65.1365 43.8162C65.3768 43.4005 65.5533 43.0068 65.6637 42.635C65.774 42.2633 65.828 41.8745 65.828 41.4661C65.828 40.5906 65.5386 39.8765 64.9624 39.3238C64.3838 38.7711 63.6138 38.4923 62.6502 38.4923C61.6719 38.4923 60.8627 38.7834 60.2277 39.3678C59.5926 39.9499 59.2297 40.796 59.1415 41.9038H57.3442C57.4913 40.2727 58.0209 39.0181 58.933 38.1426C59.8452 37.2671 61.0785 36.8318 62.6257 36.8318C63.4005 36.8318 64.0944 36.9492 64.7074 37.1816C65.3204 37.4139 65.8476 37.7391 66.2865 38.1549C66.7254 38.5706 67.0613 39.0622 67.2942 39.6295C67.5272 40.1969 67.6449 40.818 67.6449 41.4881C67.6449 42.0555 67.5713 42.5886 67.4266 43.085C67.2795 43.5815 67.0564 44.0803 66.7573 44.5817C66.4581 45.0855 66.0781 45.6137 65.6171 46.1664C65.1561 46.7215 64.6191 47.3402 64.0062 48.025L60.4557 51.8717H67.6252V53.5763H56.9053V53.5102L62.736 46.9098Z" fill="#AEC3B0"/>
<path d="M77.0947 53.5763V37.0911H78.9141V51.8717H84.0656V53.5763H77.0947Z" fill="#AEC3B0"/>
<path d="M83.9773 37.0911H93.7753V38.7956H89.786V53.5763H87.9887V38.7956H83.9773V37.0911Z" fill="#AEC3B0"/>
<path d="M96.0557 53.5763V37.0911H98.9048C100.337 37.0911 101.631 37.2745 102.784 37.6389C103.939 38.0032 104.922 38.5364 105.731 39.2358C106.543 39.9352 107.17 40.796 107.617 41.8158C108.063 42.8356 108.286 44.0021 108.286 45.3129C108.286 46.6383 108.063 47.8171 107.617 48.8442C107.17 49.8713 106.53 50.7346 105.699 51.434C104.866 52.1334 103.86 52.6665 102.686 53.0309C101.509 53.3953 100.19 53.5787 98.7283 53.5787H96.0557V53.5763ZM98.8607 51.8717C100.03 51.8717 101.082 51.7299 102.016 51.4462C102.951 51.1625 103.747 50.7419 104.407 50.1892C105.064 49.6365 105.572 48.9494 105.93 48.135C106.288 47.3182 106.467 46.3791 106.467 45.3153C106.467 43.2171 105.827 41.6055 104.549 40.483C103.269 39.3605 101.425 38.8005 99.0152 38.8005H97.875V51.8742H98.8607V51.8717Z" fill="#AEC3B0"/>
<path d="M110.983 52.6592C110.983 52.3242 111.096 52.0429 111.324 51.818C111.55 51.593 111.824 51.478 112.145 51.478C112.481 51.478 112.763 51.5905 112.989 51.818C113.214 52.0429 113.33 52.3242 113.33 52.6592C113.33 52.9942 113.217 53.2706 112.989 53.4907C112.763 53.7083 112.481 53.8184 112.145 53.8184C111.824 53.8184 111.55 53.7083 111.324 53.4907C111.096 53.2706 110.983 52.9942 110.983 52.6592Z" fill="#AEC3B0"/>
</svg>
