<svg width="19" height="19" viewBox="0 0 19 19" fill="none" xmlns="http://www.w3.org/2000/svg">
<path d="M12.705 0.26001C9.5172 0.26001 6.93 2.84721 6.93 6.03501C6.93 6.40461 6.93 6.77421 6.9993 7.12071L0 14.12V18.74H6.93V14.12H11.55V11.81L11.6193 11.7407C11.9658 11.81 12.3354 11.81 12.705 11.81C15.8928 11.81 18.48 9.22281 18.48 6.03501C18.48 2.84721 15.8928 0.26001 12.705 0.26001ZM13.86 2.57001C15.1305 2.57001 16.17 3.60951 16.17 4.88001C16.17 6.15051 15.1305 7.19001 13.86 7.19001C12.5895 7.19001 11.55 6.15051 11.55 4.88001C11.55 3.60951 12.5895 2.57001 13.86 2.57001Z" fill="#585858"/>
</svg>
