<svg width="23" height="17" viewBox="0 0 23 17" fill="none" xmlns="http://www.w3.org/2000/svg">
<path d="M2.09056 0.251278C1.72582 0.309636 1.3992 0.510497 1.18255 0.809673C0.96591 1.10885 0.876986 1.48183 0.935345 1.84657C0.993703 2.21131 1.19456 2.53793 1.49374 2.75457C1.79291 2.97122 2.1659 3.06014 2.53064 3.00178H6.6564L6.90394 3.68941L8.03165 7.12754L9.15936 10.5657C9.26938 10.9232 9.73697 11.2533 10.0945 11.2533H19.7213C20.1064 11.2533 20.5465 10.9232 20.6565 10.5657L22.8844 3.68941C22.9944 3.33185 22.8294 3.00178 22.4443 3.00178H10.2321L9.18686 1.02142C9.07554 0.794116 8.90365 0.601942 8.69012 0.466058C8.47659 0.330175 8.2297 0.255854 7.97664 0.251278L2.47563 0.251278C2.39328 0.243837 2.31043 0.243837 2.22808 0.251278C2.17312 0.247975 2.11801 0.247975 2.06305 0.251278L2.09056 0.251278ZM10.7822 14.0038C10.012 14.0038 9.40691 14.6089 9.40691 15.3791C9.40691 16.1492 10.012 16.7543 10.7822 16.7543C11.5523 16.7543 12.1574 16.1492 12.1574 15.3791C12.1574 14.6089 11.5523 14.0038 10.7822 14.0038ZM19.0337 14.0038C18.2635 14.0038 17.6584 14.6089 17.6584 15.3791C17.6584 16.1492 18.2635 16.7543 19.0337 16.7543C19.8038 16.7543 20.4089 16.1492 20.4089 15.3791C20.4089 14.6089 19.8038 14.0038 19.0337 14.0038Z" fill="white"/>
</svg>
