<?xml version="1.0" encoding="utf-8"?>
<!-- Generator: Adobe Illustrator 27.0.0, SVG Export Plug-In . SVG Version: 6.00 Build 0)  -->
<svg version="1.1" id="Capa_1" xmlns="http://www.w3.org/2000/svg" xmlns:xlink="http://www.w3.org/1999/xlink" x="0px" y="0px"
	 viewBox="0 0 419.22 419.22" style="enable-background:new 0 0 419.22 419.22;" xml:space="preserve">
<style type="text/css">
	.st0{fill:#1A707C;}
	.st1{fill:#FFFFFF;}
</style>
<path class="st0" d="M387.1,419.22H32.12C14.39,419.22,0,404.86,0,387.1V32.12C0,14.39,14.36,0,32.12,0H387.1
	c17.72,0,32.12,14.36,32.12,32.12V387.1C419.22,404.83,404.83,419.22,387.1,419.22z"/>
<path class="st1" d="M318.12,26.4c-7.23-5.88-112.63-2.26-122.56,0c-9.96,2.26-6.32,29.85-10.4,64.23
	c-4.05,34.38-5.88,98.61-7.23,100.41c-1.35,1.82-9.96-1.82-19.89,0c-9.96,1.82-72.37,15.37-76.93,19.45c0,0-3.11,34.82,1.85,38.43
	c0.09,0.06,0.28,0.16,0.5,0.25l5.09,130.92h10.68l6.69-127.53c21.06,2.42,52.98,5.31,80.61,7.48l3.43,88.15h10.68l4.56-86.77
	c6.79,0.47,12.98,0.88,18.26,1.16l7.04,133.47h10.68l5.22-134.31c8.42-2.33,24.7-7.2,38.25-11.75l5.91,112.16h10.68l4.68-120.49
	c0.5-0.35,0.82-0.63,0.91-0.85c1.35-3.61,4.09-67.41,5.44-98.14C313.6,111.88,325.35,32.27,318.12,26.4z"/>
</svg>
