<svg width="202" height="125" viewBox="0 0 202 125" fill="none" xmlns="http://www.w3.org/2000/svg">
<path d="M168.347 64.2617H36.2643C35.5913 64.2617 35.0449 64.8061 35.0449 65.4764V67.2972C35.0449 67.9675 35.5913 68.5119 36.2643 68.5119H54.6656V75.3255H48.1621C47.4892 75.3255 46.9427 75.8699 46.9427 76.5402C46.9427 77.2106 47.4892 77.7549 48.1621 77.7549H54.6656H57.1017H94.938L59.4974 108.772C58.846 109.638 59.5082 110.869 60.593 110.807C60.9375 110.788 61.2606 110.63 61.4867 110.37L99.4791 77.7549H101.089H103.525H105.11L142.715 110.316C142.968 110.611 143.334 110.788 143.722 110.807C144.928 110.869 145.66 109.501 144.936 108.538L109.151 77.7549H156.452C157.125 77.7549 157.671 77.2106 157.671 76.5402C157.671 75.8699 157.125 75.3255 156.452 75.3255H149.948V68.5119H168.349C169.022 68.5119 169.569 67.9675 169.569 67.2972V65.4764C169.566 64.8061 169.02 64.2617 168.347 64.2617ZM57.1017 75.3255V68.5119H101.086V75.3255H97.7133H57.1017ZM147.509 75.3255H106.327H103.525V68.5119H147.509V75.3255Z" fill="white"/>
<path d="M47.3573 17.191V20.3793H41.1472V24.1199H47.0181V27.2117H41.1472V35.2669H37.5375V17.191H47.3573Z" fill="white"/>
<path d="M50.4609 17.191H54.1191V28.2199C54.1191 29.6733 54.4368 30.7164 55.0694 31.3492C55.7019 31.9794 56.5418 32.2958 57.5835 32.2958C58.6253 32.2958 59.4651 31.9767 60.0977 31.3358C60.7303 30.6976 61.0479 29.6331 61.0479 28.1475V17.191H64.6819V28.6034C64.6819 29.7537 64.4961 30.7646 64.1273 31.6361C63.7586 32.5076 63.2579 33.2343 62.6226 33.8189C61.9873 34.4034 61.239 34.8459 60.3722 35.1489C59.5055 35.4519 58.5741 35.6047 57.5808 35.6047C56.5849 35.6047 55.6562 35.4519 54.7894 35.1489C53.9226 34.8459 53.1689 34.4007 52.5283 33.8189C51.8876 33.2343 51.3815 32.5076 51.0128 31.6361C50.644 30.7646 50.4583 29.7537 50.4583 28.6034V17.191H50.4609Z" fill="white"/>
<path d="M72.7708 17.191C73.8125 17.191 74.7681 17.2956 75.6349 17.502C76.5017 17.7085 77.2473 18.0383 77.8718 18.4861C78.499 18.9339 78.9862 19.5078 79.3388 20.213C79.6915 20.9156 79.8691 21.7549 79.8691 22.7309C79.8691 23.8813 79.5569 24.8922 78.9297 25.7637C78.3025 26.6352 77.3577 27.335 76.0898 27.8606L81.4331 35.2695H77.1019L72.5527 28.2441H72.0225V35.2695H68.4127V17.191H72.7708ZM72.0252 25.4151H72.8192C73.9256 25.4151 74.7843 25.2086 75.3953 24.793C76.0037 24.3774 76.3105 23.715 76.3105 22.8033C76.3105 21.9399 76.0225 21.3097 75.4438 20.9102C74.865 20.5107 74.0252 20.3122 72.9161 20.3122H72.0252V25.4151Z" fill="white"/>
<path d="M83.4789 35.2669V17.191H85.9338L96.4992 29.2737L96.4023 17.191H99.9636V35.2669H97.5329L86.9675 23.2082L87.0402 35.2669H83.4789Z" fill="white"/>
<path d="M103.864 35.2669V17.191H107.474V35.2669H103.864Z" fill="white"/>
<path d="M109.808 17.191H121.552V20.5241H117.509V35.2669H113.875V20.5241H109.808V17.191Z" fill="white"/>
<path d="M123.716 17.191H127.375V28.2199C127.375 29.6733 127.692 30.7164 128.325 31.3492C128.957 31.9794 129.797 32.2958 130.839 32.2958C131.881 32.2958 132.72 31.9767 133.353 31.3358C133.986 30.6976 134.303 29.6331 134.303 28.1475V17.191H137.937V28.6034C137.937 29.7537 137.751 30.7646 137.383 31.6361C137.014 32.5076 136.513 33.2343 135.878 33.8189C135.243 34.4034 134.494 34.8459 133.628 35.1489C132.761 35.4519 131.829 35.6047 130.836 35.6047C129.84 35.6047 128.912 35.4519 128.045 35.1489C127.178 34.8459 126.424 34.4007 125.784 33.8189C125.143 33.2343 124.637 32.5076 124.268 31.6361C123.899 30.7646 123.714 29.7537 123.714 28.6034V17.191H123.716Z" fill="white"/>
<path d="M146.026 17.191C147.068 17.191 148.023 17.2956 148.89 17.502C149.757 17.7085 150.503 18.0383 151.127 18.4861C151.754 18.9339 152.242 19.5078 152.594 20.213C152.947 20.9156 153.124 21.7549 153.124 22.7309C153.124 23.8813 152.812 24.8922 152.185 25.7637C151.558 26.6352 150.613 27.335 149.345 27.8606L154.688 35.2695H150.357L145.808 28.2441H145.278V35.2695H141.671V17.191H146.026ZM145.281 25.4151H146.075C147.181 25.4151 148.04 25.2086 148.651 24.793C149.259 24.3774 149.566 23.715 149.566 22.8033C149.566 21.9399 149.278 21.3097 148.699 20.9102C148.12 20.5107 147.281 20.3122 146.172 20.3122H145.281V25.4151Z" fill="white"/>
<path d="M167.251 17.191V20.3069H160.32V24.0234H166.985V27.091H160.32V32.1483H167.3V35.2642H156.71V17.191H167.251Z" fill="white"/>
<path d="M38.695 59.2259L37.1068 58.2204L46.3963 42.5417H36.6976V40.6727H49.6453V40.721L38.695 59.2259Z" fill="white"/>
<path d="M47.045 55.1259V55.0535L58.1622 39.6618H58.2349V53.3266H60.4018V55.1259H58.2349V58.7459H56.3345V55.1259H47.045ZM50.3667 53.3293H56.3345V46.9769C56.3345 46.6578 56.3372 46.3307 56.3452 45.9928C56.3533 45.6576 56.3641 45.3305 56.3802 45.0087L50.3667 53.3293Z" fill="white"/>
<path d="M68.873 51.4362C69.5002 50.7176 70.0278 50.0847 70.4612 49.5431C70.8946 48.9987 71.2445 48.5 71.5083 48.0441C71.7721 47.5883 71.9659 47.1565 72.0871 46.749C72.2082 46.3414 72.2674 45.915 72.2674 45.4672C72.2674 44.5072 71.9498 43.7242 71.3172 43.1182C70.6819 42.5122 69.8367 42.2065 68.7788 42.2065C67.7048 42.2065 66.8165 42.5256 66.1193 43.1665C65.4221 43.8047 65.0237 44.7325 64.9268 45.9472H62.9537C63.1152 44.1587 63.6966 42.783 64.698 41.8231C65.6994 40.8631 67.0534 40.3858 68.7519 40.3858C69.6025 40.3858 70.3643 40.5145 71.0373 40.7693C71.7102 41.024 72.289 41.3806 72.7708 41.8365C73.2526 42.2923 73.6214 42.8313 73.8771 43.4534C74.1329 44.0755 74.2621 44.7566 74.2621 45.4913C74.2621 46.1134 74.1813 46.698 74.0225 47.2424C73.861 47.7867 73.616 48.3337 73.2876 48.8834C72.9592 49.4358 72.542 50.015 72.0359 50.621C71.5299 51.2297 70.9403 51.9081 70.2674 52.659L66.3696 56.8769H74.2405V58.7459H62.4719V58.6735L68.873 51.4362Z" fill="white"/>
<path d="M84.6364 58.7459V40.67H86.6337V56.8769H92.2892V58.7459H84.6364Z" fill="white"/>
<path d="M92.1923 40.67H102.949V42.539H98.5693V58.7459H96.5962V42.539H92.1923V40.67Z" fill="white"/>
<path d="M105.452 58.7459V40.67H108.58C110.152 40.67 111.573 40.8712 112.839 41.2707C114.106 41.6702 115.186 42.2548 116.074 43.0217C116.965 43.7886 117.654 44.7325 118.144 45.8507C118.634 46.9688 118.879 48.2479 118.879 49.6852C118.879 51.1386 118.634 52.431 118.144 53.5573C117.654 54.6835 116.952 55.63 116.039 56.3969C115.124 57.1638 114.02 57.7484 112.731 58.148C111.439 58.5475 109.991 58.7486 108.386 58.7486H105.452V58.7459ZM108.532 56.8769C109.816 56.8769 110.971 56.7214 111.996 56.4103C113.022 56.0993 113.897 55.6381 114.621 55.0321C115.342 54.4261 115.899 53.6726 116.292 52.7796C116.685 51.884 116.882 50.8543 116.882 49.6879C116.882 47.3872 116.179 45.6201 114.777 44.3893C113.372 43.1585 111.347 42.5444 108.701 42.5444H107.45V56.8796H108.532V56.8769Z" fill="white"/>
<path d="M121.84 57.7403C121.84 57.373 121.964 57.0646 122.214 56.8179C122.462 56.5712 122.763 56.4452 123.116 56.4452C123.485 56.4452 123.794 56.5685 124.042 56.8179C124.29 57.0646 124.416 57.373 124.416 57.7403C124.416 58.1077 124.292 58.4107 124.042 58.652C123.794 58.8907 123.485 59.0114 123.116 59.0114C122.763 59.0114 122.462 58.8907 122.214 58.652C121.964 58.4107 121.84 58.1077 121.84 57.7403Z" fill="white"/>
</svg>
