<svg width="24" height="21" viewBox="0 0 24 21" fill="none" xmlns="http://www.w3.org/2000/svg">
<path d="M12 21C11.8421 21.0009 11.6856 20.9698 11.5394 20.9083C11.3932 20.8468 11.2602 20.7562 11.1481 20.6417L1.82536 11.0309C0.65595 9.81431 0 8.17181 0 6.46018C0 4.74855 0.65595 3.10605 1.82536 1.88947C3.00392 0.679478 4.60039 0 6.26477 0C7.92915 0 9.52562 0.679478 10.7042 1.88947L12 3.22362L13.2958 1.88947C14.4744 0.679478 16.0709 0 17.7352 0C19.3996 0 20.9961 0.679478 22.1746 1.88947C23.344 3.10605 24 4.74855 24 6.46018C24 8.17181 23.344 9.81431 22.1746 11.0309L12.8519 20.6417C12.7398 20.7562 12.6068 20.8468 12.4606 20.9083C12.3144 20.9698 12.1579 21.0009 12 21ZM6.26477 2.47007C5.75685 2.4677 5.25352 2.56912 4.78394 2.76845C4.31435 2.96777 3.88785 3.26105 3.52913 3.63128C2.8045 4.38127 2.39773 5.39613 2.39773 6.454C2.39773 7.51188 2.8045 8.52673 3.52913 9.27672L12 18.0105L20.4709 9.27672C21.1955 8.52673 21.6023 7.51188 21.6023 6.454C21.6023 5.39613 21.1955 4.38127 20.4709 3.63128C19.7314 2.91196 18.7526 2.5112 17.7352 2.5112C16.7179 2.5112 15.7391 2.91196 14.9996 3.63128L12.8519 5.85487C12.7403 5.97065 12.6076 6.06256 12.4614 6.12527C12.3152 6.18799 12.1584 6.22028 12 6.22028C11.8416 6.22028 11.6848 6.18799 11.5386 6.12527C11.3924 6.06256 11.2597 5.97065 11.1481 5.85487L9.0004 3.63128C8.64168 3.26105 8.21518 2.96777 7.7456 2.76845C7.27602 2.56912 6.77269 2.4677 6.26477 2.47007Z" fill="#585858"/>
</svg>
